<?xml version="1.0" encoding="UTF-8"?>
<svg version="1.1" xmlns="http://www.w3.org/2000/svg" width="360" height="360">
<path d="M0 0 C118.8 0 237.6 0 360 0 C360 118.8 360 237.6 360 360 C241.2 360 122.4 360 0 360 C0 241.2 0 122.4 0 0 Z " fill="#FCFCFC" transform="translate(0,0)"/>
<path d="M0 0 C3.39729598 6.34161917 4.09658595 13.1473913 2.50390625 20.1953125 C1.75033686 22.50285267 0.89737622 24.74424252 0 27 C-0.42152344 28.10472656 -0.84304687 29.20945312 -1.27734375 30.34765625 C-2.14855428 32.62795512 -3.02697512 34.90551804 -3.9140625 37.1796875 C-6.53575671 43.98854801 -7.48785629 51.29569941 -4.5 58.1875 C-4.005 59.115625 -3.51 60.04375 -3 61 C0.55069222 61.51780928 2.79913597 61.64030445 6 59.93359375 C15.35754235 52.64129024 19.59459861 40.22520647 22 29 C22.33 29 22.66 29 23 29 C23.66467252 43.32738551 20.30554054 53.65262585 10.75390625 64.56640625 C9.21779494 66.22167628 7.68134025 67.87662771 6.14453125 69.53125 C-3.21716675 80.30828667 -6.22898065 92.44031946 -6.0625 106.4375 C-6.05798828 107.16904297 -6.05347656 107.90058594 -6.04882812 108.65429688 C-6.03718148 110.43623419 -6.01925191 112.21812863 -6 114 C-1.16724059 112.09217343 2.66865016 110.01533879 6.8125 106.8125 C7.84375 106.0184375 8.875 105.224375 9.9375 104.40625 C10.948125 103.6121875 11.95875 102.818125 13 102 C13.9075 101.2884375 14.815 100.576875 15.75 99.84375 C17.43027195 98.51182711 19.10250114 97.1696806 20.765625 95.81640625 C22.11381823 94.72041001 23.47499591 93.6397615 24.859375 92.58984375 C38.07334418 82.19445056 44.44387925 66.81139621 48.140625 50.921875 C48.42421875 49.95765625 48.7078125 48.9934375 49 48 C49.66 47.67 50.32 47.34 51 47 C51.6678336 63.9431859 47.8733771 78.85408171 36.125 91.6875 C35.36445313 92.45449219 34.60390625 93.22148437 33.8203125 94.01171875 C31.78617988 95.96250855 31.78617988 95.96250855 31 99 C31.7842334 98.97905273 32.5684668 98.95810547 33.37646484 98.93652344 C78.08155988 97.9021985 78.08155988 97.9021985 92.90625 111.78515625 C94.3125 113.4375 94.3125 113.4375 96 116 C93.51906425 115.042754 91.11046314 114.05609009 88.73828125 112.8515625 C75.93318466 106.37684377 62.80857481 104.64275709 48.625 104.5 C47.55628662 104.48155029 46.48757324 104.46310059 45.38647461 104.4440918 C27.33528333 104.58495329 12.43377911 113.87960295 -0.2109375 126.14453125 C-3.91857843 130.10187045 -5.36107307 132.49120321 -6 138 C-4.081875 138.07347656 -4.081875 138.07347656 -2.125 138.1484375 C-0.41664778 138.22352991 1.29168459 138.29907487 3 138.375 C3.83917969 138.4059375 4.67835938 138.436875 5.54296875 138.46875 C18.17429201 139.05625341 29.44013675 142.51287909 38.72265625 151.35546875 C42.45842486 155.69357398 45.25314756 160.538122 47 166 C46.64453125 168.35546875 46.64453125 168.35546875 46 170 C45.67128906 169.27554688 45.34257812 168.55109375 45.00390625 167.8046875 C40.01891562 157.67259273 34.23358392 153.77576718 23.6875 150.125 C17.32494275 148.13851753 11.14977144 147.51028295 4.5 147.4375 C3.67588623 147.42283691 2.85177246 147.40817383 2.00268555 147.39306641 C-5.36378405 147.51699809 -11.04975424 149.79148519 -16.25 155.0625 C-19.76366634 159.48569849 -21.40043138 164.64349587 -23 170 C-23.29583984 170.95712891 -23.29583984 170.95712891 -23.59765625 171.93359375 C-24.14945738 174.76760151 -24.13172556 177.4897358 -24.125 180.375 C-24.12757813 181.47585937 -24.13015625 182.57671875 -24.1328125 183.7109375 C-24.00417206 186.89668004 -23.57458869 189.86784358 -23 193 C-21.79538707 203.8415164 -27.16899462 213.55560209 -32 223 C-32.66 223 -33.32 223 -34 223 C-41.51525375 198.79055662 -45.19657718 175.80846225 -33.66796875 152.125 C-31.05330331 147.22632938 -28.08111724 142.61500677 -25 138 C-23.72298057 136.04569496 -22.45204218 134.08740156 -21.1875 132.125 C-20.34251953 130.82949219 -20.34251953 130.82949219 -19.48046875 129.5078125 C-16.01321142 123.63451644 -15.70691408 118.88229585 -15.5625 112.1875 C-15.21969124 101.94073187 -14.2623995 91.78719851 -11 82 C-10.90314891 79.17707563 -10.86078254 76.38466638 -10.875 73.5625 C-10.87113281 72.79873047 -10.86726563 72.03496094 -10.86328125 71.24804688 C-10.86457031 70.50748047 -10.86585938 69.76691406 -10.8671875 69.00390625 C-10.86831543 68.33174072 -10.86944336 67.6595752 -10.87060547 66.96704102 C-11.00822378 64.87498299 -11.47356217 63.02539085 -12 61 C-12.11858309 58.93996346 -12.17517378 56.87590994 -12.1875 54.8125 C-12.20167969 53.74644531 -12.21585938 52.68039063 -12.23046875 51.58203125 C-11.70193659 43.3673874 -9.09580183 36.23013497 -5.9375 28.6875 C-5.21515074 26.94235533 -4.49501098 25.19629406 -3.77734375 23.44921875 C-3.46015381 22.68955811 -3.14296387 21.92989746 -2.81616211 21.1472168 C-1.07438032 16.56481451 -0.7180571 12.11605589 -0.4375 7.25 C-0.37272461 6.20392578 -0.37272461 6.20392578 -0.30664062 5.13671875 C-0.20110404 3.42468078 -0.1001009 1.71236439 0 0 Z " fill="#0F0E0D" transform="translate(201,62)"/>
<path d="M0 0 C0.82065069 1.87144695 1.6311584 3.74734336 2.4375 5.625 C2.88996094 6.66914063 3.34242188 7.71328125 3.80859375 8.7890625 C10.69066962 27.33682108 7.00855102 53.59818253 -0.8125 71.25 C-3.6707331 77.44845052 -6.70887964 83.56848367 -9.87109375 89.6171875 C-11.55468074 93.17077941 -12.12094794 96.41895879 -12.31640625 100.328125 C-12.37924805 101.52695312 -12.37924805 101.52695312 -12.44335938 102.75 C-12.48267578 103.575 -12.52199219 104.4 -12.5625 105.25 C-12.62727539 106.51070312 -12.62727539 106.51070312 -12.69335938 107.796875 C-12.79908543 109.86440671 -12.90001295 111.93218281 -13 114 C-13.6094043 113.84063965 -14.21880859 113.6812793 -14.84667969 113.51708984 C-25.00688042 111.07725933 -35.67292704 113.78645388 -45 118 C-48.32481517 120.0460401 -51.14696274 122.34805788 -54 125 C-55.010625 125.804375 -56.02125 126.60875 -57.0625 127.4375 C-58.0215625 128.2109375 -58.0215625 128.2109375 -59 129 C-56.63376609 120.58672388 -48.99489979 114.6471863 -42 110 C-41.34 109.67 -40.68 109.34 -40 109 C-63.12153261 109.29434787 -85.55567328 109.65828696 -103 127 C-103.33 126.01 -103.66 125.02 -104 124 C-101.41678111 119.12637041 -98.47145509 116.6555408 -93.8125 113.8125 C-89.28842041 111.3211115 -89.28842041 111.3211115 -87 107 C-96.21419459 104.05145773 -106.84033914 103.36605308 -115.9765625 106.94921875 C-119.66384805 108.86404465 -122.81731713 111.35007057 -126 114 C-127.485 115.175625 -127.485 115.175625 -129 116.375 C-129.66 116.91125 -130.32 117.4475 -131 118 C-129.41037341 113.96479403 -127.71767682 109.98188718 -126 106 C-132.33045118 107.12314456 -137.23085017 108.91579653 -142.8359375 112.07421875 C-145 113 -145 113 -148 112 C-131.94578557 101.48436193 -119.22906368 99.02504425 -100.14169312 98.6697998 C-62.11171132 98.72282823 -62.11171132 98.72282823 -29.921875 80.92578125 C-19.75559133 69.13849566 -13.85081293 55.15342825 -11 40 C-10.80664062 38.99582031 -10.61328125 37.99164063 -10.4140625 36.95703125 C-9.9620989 33.72932892 -9.86736908 30.63340197 -9.875 27.375 C-9.87242187 26.26898438 -9.86984375 25.16296875 -9.8671875 24.0234375 C-9.97962726 21.46377944 -10.31080437 19.4411204 -11 17 C-11.53248131 11.24920182 -10.59976296 8.4997037 -7 4 C-3.52631579 0 -3.52631579 0 0 0 Z " fill="#080706" transform="translate(193,215)"/>
<path d="M0 0 C0.33 0 0.66 0 1 0 C1.00386719 1.22009766 1.00386719 1.22009766 1.0078125 2.46484375 C1.45015322 15.5728736 6.07189925 26.90012189 11.23828125 38.82421875 C13.96875257 46.62356503 13.70610834 55.90184401 12.5 64 C11.17312948 73.30760648 11.87252025 81.95731167 14.24609375 91.02734375 C16.11715263 98.40493861 16.28047997 105.64060854 16.4296875 113.21289062 C16.57655467 117.47509824 16.77599668 121.01499277 18.6015625 124.91015625 C20.12862899 128.28420538 20.10190521 128.69863815 19 132 C16.71120229 137.69171917 14.16882787 143.39947015 9 147 C2.37452923 148.68574044 -4.63739998 147.64569305 -11.375 147.12158203 C-21.18805808 146.66707097 -30.31779636 151.16910611 -37.75 157.25 C-40.72739045 160.88903277 -42.86263494 164.82531675 -45 169 C-46.39300935 164.82097195 -45.17222986 162.71250834 -43.4765625 158.76171875 C-37.73364064 148.02032787 -28.73406976 142.34564576 -17.31640625 138.8828125 C-12.25892773 137.68687253 -7.17661828 137.54636392 -2 137.375 C-1.03449219 137.33632812 -0.06898438 137.29765625 0.92578125 137.2578125 C3.2836744 137.16443059 5.64157756 137.07865671 8 137 C2.18113031 122.59959253 -10.54778129 113.97302234 -24.29296875 107.44140625 C-43.97762271 99.7874154 -64.75179466 102.44663514 -84 110 C-86.50458397 111.26431674 -88.89292583 112.58759863 -91.265625 114.08203125 C-93 115 -93 115 -96 115 C-87.35559085 104.71193559 -74.20778486 99.37359149 -61 98 C-50.6722671 97.55055859 -40.33105418 97.7469787 -30 98 C-31.84935375 94.84397119 -33.59795942 92.26473872 -36.1875 89.6875 C-47.48012844 77.04936689 -50.42017111 62.41001601 -50 46 C-49.01 46.495 -49.01 46.495 -48 47 C-47.32421875 49.30078125 -47.32421875 49.30078125 -46.6875 52.3125 C-40.20607843 79.5280214 -21.56121207 95.03067184 0.2578125 110.3203125 C2.62524426 111.77044876 4.29137286 112.57232203 7 113 C7.45950911 92.88371234 4.896477 78.85090966 -9.56640625 63.68359375 C-19.3437611 52.90182363 -22.66495454 42.33346462 -22 28 C-20.12665663 31.45584805 -18.93491556 35.02806953 -17.6875 38.75 C-14.68966003 47.17541611 -11.1215854 55.36399988 -3 60 C0.79508033 60.5038759 0.79508033 60.5038759 4 60 C7.70482685 53.05344965 8.12320745 46.56195026 6.23828125 38.90625 C4.7593505 34.27655375 3.03134354 29.88640022 0.8125 25.5625 C-2.73902853 18.58190945 -3.16622315 10.43373609 -1 2.875 C-0.67 1.92625 -0.34 0.9775 0 0 Z " fill="#12110F" transform="translate(158,63)"/>
<path d="M0 0 C2.93323647 2.38751806 5.68255037 4.65609623 8.25 7.4375 C17.59308162 16.14355332 29.27511794 19.63333866 41.74609375 21.08203125 C42.47807983 21.16735611 43.21006592 21.25268097 43.9642334 21.34059143 C53.42273899 22.3605 62.91190938 22.38234812 72.41601562 22.45629883 C81.15204475 22.53676225 89.67645574 22.86769899 98.30078125 24.3515625 C98.98644165 24.46765366 99.67210205 24.58374481 100.37854004 24.70335388 C106.66171403 25.89614868 111.72116242 28.4899396 117 32 C117.99 32.63228516 117.99 32.63228516 119 33.27734375 C120.35203498 34.15679243 121.68034314 35.07267356 123 36 C120 37 120 37 117.07421875 35.8203125 C115.95660156 35.26085937 114.83898437 34.70140625 113.6875 34.125 C109.39711454 31.98229878 105.77652363 30.56364424 101 30 C101.50660156 30.99580078 101.50660156 30.99580078 102.0234375 32.01171875 C102.46945312 32.89472656 102.91546875 33.77773438 103.375 34.6875 C103.81585938 35.55761719 104.25671875 36.42773438 104.7109375 37.32421875 C105.92664268 39.84772799 106.99260958 42.38737532 108 45 C107.01 43.9790625 107.01 43.9790625 106 42.9375 C105.00203434 41.95626002 104.00177957 40.97734592 103 40 C102.43023437 39.4225 101.86046875 38.845 101.2734375 38.25 C92.27081652 29.65490507 82.7888348 28.41012168 70.8203125 28.6640625 C67.39736836 28.96505759 65.05633701 29.50179559 62 31 C63.43358243 34.56479053 65.05659445 35.96206823 68.3125 37.9375 C73.14013415 41.01880347 78.10915615 44.32746844 80 50 C79.67 50.99 79.34 51.98 79 53 C78.525625 52.29875 78.05125 51.5975 77.5625 50.875 C67.85556223 39.98428933 51.91480229 34.90128202 37.72998047 33.72998047 C30.15861353 33.29736071 22.58249185 33.10068327 15 33 C15.60473145 33.39179443 16.20946289 33.78358887 16.83251953 34.18725586 C17.63286621 34.71198486 18.43321289 35.23671387 19.2578125 35.77734375 C20.04816895 36.29288818 20.83852539 36.80843262 21.65283203 37.33959961 C26.67007151 40.88882425 31.41445568 45.3441218 34 51 C33.505 51.99 33.505 51.99 33 53 C32.63390625 52.56429687 32.2678125 52.12859375 31.890625 51.6796875 C23.73421028 42.70763131 11.50001121 37.41757697 -0.578125 36.82421875 C-3.72577711 36.8139991 -6.85554225 36.86502328 -10 37 C-10.57912073 22.11445228 -7.29235805 12.74664229 0 0 Z " fill="#0A0A0A" transform="translate(192,291)"/>
<path d="M0 0 C-0.48787441 12.61155346 -3.68904107 23.07432213 -13 32 C-19.39212307 36.63742262 -25.22308643 37.74459811 -33 37 C-28.95108635 28.29581365 -21.8363319 21.55729794 -15 15 C-22.16558187 19.97881029 -29.12730188 25.69095282 -34 33 C-34.66 33 -35.32 33 -36 33 C-36.72060004 25.86072185 -36.22940424 21.10722776 -32.09375 15.16796875 C-26.28858359 9.15702219 -20.02838402 5.81819982 -12.1875 3.125 C-11.34251953 2.81820312 -10.49753906 2.51140625 -9.62695312 2.1953125 C-3.45753697 0 -3.45753697 0 0 0 Z " fill="#48761B" transform="translate(264,58)"/>
<path d="M0 0 C2.03933217 1.12169638 3.40133351 2.35485629 4.9543457 4.07495117 C-1.44118318 9.00010613 -7.51091716 13.14385562 -15.0456543 16.07495117 C-15.7056543 16.40495117 -16.3656543 16.73495117 -17.0456543 17.07495117 C-26.90283553 17.86404311 -33.9457169 17.40989796 -41.5456543 10.94995117 C-43.0456543 9.07495117 -43.0456543 9.07495117 -43.0456543 7.07495117 C-38.33591781 5.30879999 -34.01482066 4.58900286 -29.0456543 4.07495117 C-35.9756543 3.57995117 -35.9756543 3.57995117 -43.0456543 3.07495117 C-32.72821869 -14.12077483 -14.9279892 -6.50505299 0 0 Z " fill="#4A781D" transform="translate(300.045654296875,110.925048828125)"/>
<path d="M0 0 C4.15846205 3.51366681 5.99141484 7.64636338 8.1875 12.5 C8.54263672 13.25925781 8.89777344 14.01851562 9.26367188 14.80078125 C12.82660942 22.52160606 14.64740124 29.84296019 11.8125 38.1875 C10.1603281 42.11337512 7.96819234 44.95570016 5 48 C4.34 48 3.68 48 3 48 C2.67 39.09 2.34 30.18 2 21 C1.71189146 27.64069781 1.71189146 27.64069781 1.43188477 34.28173828 C1.22055693 38.92737633 0.9160862 43.42726718 0 48 C-2.6707644 47.62342801 -3.79395927 47.21955159 -5.66796875 45.22265625 C-6.42013672 44.15337891 -6.42013672 44.15337891 -7.1875 43.0625 C-7.69667969 42.35222656 -8.20585937 41.64195313 -8.73046875 40.91015625 C-12.72933213 34.89340488 -11.96972728 25.97888053 -11 19 C-8.90049401 11.84303916 -4.74486902 5.67914633 0 0 Z " fill="#49771C" transform="translate(179,24)"/>
<path d="M0 0 C2.58267016 1.81721815 4.69567843 3.80316891 6.7265625 6.21484375 C6.7265625 6.87484375 6.7265625 7.53484375 6.7265625 8.21484375 C-2.8434375 8.21484375 -12.4134375 8.21484375 -22.2734375 8.21484375 C-19.7159375 8.33859375 -17.1584375 8.46234375 -14.5234375 8.58984375 C-7.33541901 8.97589392 -0.34248035 9.81193158 6.7265625 11.21484375 C4.46807356 16.46183825 0.96345417 19.07027781 -4.2734375 21.21484375 C-18.32056859 23.14939212 -27.96084444 19.28364475 -39.21875 11.01953125 C-39.89679687 10.42398438 -40.57484375 9.8284375 -41.2734375 9.21484375 C-41.2734375 8.55484375 -41.2734375 7.89484375 -41.2734375 7.21484375 C-38.5890226 5.91642034 -35.90121646 4.62601516 -33.2109375 3.33984375 C-32.45876953 2.97503906 -31.70660156 2.61023438 -30.93164062 2.234375 C-20.98803983 -2.500673 -10.1804576 -5.88623166 0 0 Z " fill="#477519" transform="translate(64.2734375,146.78515625)"/>
<path d="M0 0 C5.98631084 0.97735687 8.72436797 3.14294201 12.48828125 7.87109375 C18.17871556 15.88475447 17.88778119 23.96218889 16.3203125 33.33203125 C15.61662506 37.23668032 14.82725234 41.11979259 14 45 C7.28851483 43.80043591 1.82113365 38.36243067 -2.3125 33.1875 C-7.37332521 25.87115381 -10.51511879 17.97416513 -9 9 C-7.90365282 6.08900922 -6.59591378 3.6931045 -5 1 C-4.34 1 -3.68 1 -3 1 C1.52014527 10.17995796 5.31098852 19.09575274 8 29 C6.94704327 21.29927166 4.85813097 14.33539234 2.12109375 7.06640625 C1.25749648 4.70430222 0.53587671 2.45058226 0 0 Z " fill="#48761A" transform="translate(279,176)"/>
<path d="M0 0 C1.75250495 0.86535768 3.48063197 1.78003633 5.19921875 2.7109375 C3.17224216 8.79186726 -4.60278476 12.03763124 -10.0703125 14.8984375 C-17.26191601 17.75857809 -26.81621715 18.30698019 -34.1796875 15.94921875 C-37.51199386 14.12832564 -40.37662095 11.61992986 -42.80078125 8.7109375 C-42.80078125 8.0509375 -42.80078125 7.3909375 -42.80078125 6.7109375 C-36.2178076 5.06351988 -30.0084469 4.32515796 -23.23828125 4.0859375 C-18.56671875 3.9003125 -18.56671875 3.9003125 -13.80078125 3.7109375 C-23.37078125 3.7109375 -32.94078125 3.7109375 -42.80078125 3.7109375 C-33.65056927 -14.58948646 -14.16312162 -6.51859154 0 0 Z " fill="#477519" transform="translate(331.80078125,151.2890625)"/>
<path d="M0 0 C-1.01933308 12.43586361 -3.35284876 22.44332701 -13.1640625 30.85546875 C-18.09813174 34.63227448 -20.80892586 36.12969228 -27.125 36.0625 C-28.22070312 36.05347656 -29.31640625 36.04445312 -30.4453125 36.03515625 C-31.28835937 36.02355469 -32.13140625 36.01195312 -33 36 C-28.14321274 26.28642547 -20.30768606 18.83629752 -12 12 C-13.3348014 12.99803958 -14.667755 13.99855053 -16 15 C-16.75796875 15.56976563 -17.5159375 16.13953125 -18.296875 16.7265625 C-23.6190834 20.84534161 -28.12315878 25.11661885 -32.40625 30.3125 C-32.9321875 30.869375 -33.458125 31.42625 -34 32 C-34.66 32 -35.32 32 -36 32 C-36.57326793 26.22485636 -36.93275289 21.46132034 -33.375 16.625 C-25.33876231 7.47002853 -12.47100608 0 0 0 Z " fill="#477519" transform="translate(242,30)"/>
<path d="M0 0 C14.29631621 2.11914422 26.00693736 7.55428391 35 19 C36.32229189 21.64458379 36.09677194 23.67761301 36.0625 26.625 C36.05347656 27.62789062 36.04445312 28.63078125 36.03515625 29.6640625 C36.02355469 30.43492188 36.01195312 31.20578125 36 32 C32.80012522 30.62467585 31.08527239 29.15654689 28.9375 26.4375 C24.31282841 20.94821589 18.47080182 15.23540091 12 12 C12.61746094 12.52207031 13.23492187 13.04414062 13.87109375 13.58203125 C21.1742573 19.92922514 28.97801887 27.01338592 33 36 C26.13316471 36.51501265 20.51849483 36.82535868 14.8125 32.6171875 C6.16481141 24.9013619 2.34366057 16.2695168 0 5 C-0.04818921 3.33403014 -0.06313156 1.66547056 0 0 Z " fill="#477519" transform="translate(118,30)"/>
<path d="M0 0 C-0.4375 1.3125 -0.875 2.625 -1.3125 3.9375 C-1.58578125 4.76378906 -1.8590625 5.59007812 -2.140625 6.44140625 C-2.67687171 8.03795895 -3.22669945 9.63009112 -3.796875 11.21484375 C-5.86502448 17.0499798 -7.0295208 22.89168973 -8 29 C-7.79246094 28.23558594 -7.58492187 27.47117188 -7.37109375 26.68359375 C-4.76914279 17.63664293 -1.14955779 9.42733225 3 1 C3.99 1.33 4.98 1.66 6 2 C9.28468649 8.8126831 10.32033296 14.67788442 8.0859375 21.9921875 C3.60985903 33.57223568 -2.8875066 39.07240221 -13 46 C-17.55621292 38.03619926 -18.17713337 25.96338017 -17 17 C-14.78858758 10.02022955 -11.02290567 5.11135374 -5 1 C-3 0 -3 0 0 0 Z " fill="#477519" transform="translate(81,176)"/>
<path d="M0 0 C11.50322667 2.09149576 24.91499479 6.32423725 32.4375 15.8125 C35.24963409 19.96094847 36.12737279 23.19229548 36.0625 28.1875 C36.05347656 29.08855469 36.04445312 29.98960938 36.03515625 30.91796875 C36.02355469 31.60503906 36.01195312 32.29210937 36 33 C32.70166953 31.90055651 32.16260652 31.24345342 30.0625 28.625 C26.90238926 24.90010352 23.52768498 21.55077041 19.9375 18.25 C19.19608765 17.56091553 19.19608765 17.56091553 18.43969727 16.85791016 C15.14009693 13.85489697 11.75058266 11.38521453 8 9 C8.44279297 9.40202637 8.88558594 9.80405273 9.34179688 10.21826172 C27.2023988 26.50374813 27.2023988 26.50374813 32 34 C32 34.66 32 35.32 32 36 C25.19161656 36.51062876 19.46680473 36.86751411 13.80859375 32.66796875 C4.63268079 24.2055177 0.8360513 14.33583363 0.078125 2.01953125 C0.05234375 1.35308594 0.0265625 0.68664063 0 0 Z " fill="#477519" transform="translate(96,58)"/>
<path d="M0 0 C3.9574474 2.53584008 6.15456346 4.54778162 8.1640625 8.796875 C7.49463623 8.79163818 6.82520996 8.78640137 6.13549805 8.78100586 C3.04086279 8.75995029 -0.05375731 8.7471253 -3.1484375 8.734375 C-4.7272168 8.72180664 -4.7272168 8.72180664 -6.33789062 8.70898438 C-13.22905436 8.68778079 -19.98624263 9.04015818 -26.8359375 9.796875 C-26.09545166 9.81669434 -25.35496582 9.83651367 -24.59204102 9.85693359 C-21.19385339 9.95297106 -17.7962154 10.06232816 -14.3984375 10.171875 C-13.23376953 10.2028125 -12.06910156 10.23375 -10.86914062 10.265625 C-4.26132827 10.48898767 1.76628211 11.11360872 8.1640625 12.796875 C6.6159389 16.13697835 5.42259433 17.59770444 2.2265625 19.484375 C1.53691406 19.90074219 0.84726563 20.31710938 0.13671875 20.74609375 C-6.19651117 24.11963603 -14.54828581 23.73620406 -21.3359375 21.796875 C-28.10517479 19.21338627 -35.79178225 14.86310788 -39.8359375 8.796875 C-37.31881561 7.49752036 -34.79764663 6.20733128 -32.2734375 4.921875 C-31.56896484 4.55707031 -30.86449219 4.19226563 -30.13867188 3.81640625 C-21.0110312 -0.81050838 -9.92966042 -4.21258321 0 0 Z " fill="#467417" transform="translate(94.8359375,105.203125)"/>
<path d="M0 0 C5.5863683 1.06407015 7.65792827 3.61415125 10.80078125 8.02734375 C15.68921849 16.06858416 12.6912099 27.34764936 11 36 C3.19962384 33.11986111 -1.80896332 28.08148304 -5.89453125 20.86328125 C-7.872261 15.74075154 -8.11919482 10.36341414 -7 5 C-4.9609375 2.6171875 -4.9609375 2.6171875 -3 1 C1.04733974 8.50526106 4.13002019 15.66710752 6 24 C5.02882935 17.27847683 3.56970461 11.30999285 0.8046875 5.09375 C0 3 0 3 0 0 Z " fill="#49771C" transform="translate(225,219)"/>
<path d="M0 0 C-0.89770147 5.26238791 -2.61645902 10.23214742 -4.27148438 15.29296875 C-5.23754819 18.30663721 -6 20.81408534 -6 24 C-5.68546875 22.92621094 -5.3709375 21.85242188 -5.046875 20.74609375 C-4.61503599 19.30975966 -4.18271868 17.87356932 -3.75 16.4375 C-3.54503906 15.73302734 -3.34007812 15.02855469 -3.12890625 14.30273438 C-1.64351588 9.41895088 0.32474212 5.35015223 3 1 C5.67470629 3.20583348 6.8829332 4.43899157 7.6015625 7.8828125 C7.6609716 16.10107192 6.44689844 21.70936631 1 28 C-7.53507341 36 -7.53507341 36 -11 36 C-15.08307638 15.11068959 -15.08307638 15.11068959 -10.21484375 6.65625 C-7.76245192 3.31279619 -4.32318422 0 0 0 Z " fill="#49771B" transform="translate(135,219)"/>
<path d="M0 0 C1.6328125 0.82421875 1.6328125 0.82421875 3.8828125 2.32421875 C3.8828125 2.98421875 3.8828125 3.64421875 3.8828125 4.32421875 C-8.4921875 7.29421875 -8.4921875 7.29421875 -21.1171875 10.32421875 C-12.2218498 8.1893377 -4.25786446 6.87220725 4.8828125 7.32421875 C3.04865451 12.41442784 0.7083726 14.56846982 -3.87109375 17.4140625 C-11.81780311 20.63420734 -21.41594033 18.42206621 -29.10546875 15.4921875 C-31.1171875 14.32421875 -31.1171875 14.32421875 -32.1171875 11.32421875 C-29.8696786 9.69567621 -27.61934588 8.07130901 -25.3671875 6.44921875 C-24.41585937 5.75892578 -24.41585937 5.75892578 -23.4453125 5.0546875 C-16.09641761 -0.2273307 -9.22276725 -2.9437984 0 0 Z " fill="#48761A" transform="translate(108.1171875,207.67578125)"/>
<path d="M0 0 C8.78695385 4.44909055 14.97594428 13.25747187 19 22 C19 22.66 19 23.32 19 24 C8.73044312 24.42855956 0.7194489 24.33474829 -7.4375 17.625 C-10.23577826 14.98249071 -12.16556349 12.85926887 -13 9 C-13 7.68 -13 6.36 -13 5 C-9.02710243 5.57567925 -6.31981135 6.79937737 -2.9375 8.9375 C-0.00871517 10.77419557 2.87959153 12.50825738 6 14 C3.91888693 12.53840903 1.83525539 11.08066008 -0.25 9.625 C-0.83652344 9.2125 -1.42304688 8.8 -2.02734375 8.375 C-4.92995082 6.35295912 -7.76947715 4.45533455 -11 3 C-11 2.34 -11 1.68 -11 1 C-7.46161452 -0.76919274 -3.85406816 -0.64131694 0 0 Z " fill="#4C791F" transform="translate(244,170)"/>
<path d="M0 0 C6.11351116 2.84202482 11.48071678 7.32903091 16.828125 11.37890625 C15.828125 14.37890625 15.828125 14.37890625 14.0703125 15.546875 C6.08692683 18.98526388 -3.09415073 20.24820631 -11.546875 17.6484375 C-15.26738844 15.68394226 -17.88185823 12.85973175 -20.171875 9.37890625 C-20.171875 8.71890625 -20.171875 8.05890625 -20.171875 7.37890625 C-12.80281912 7.03167325 -6.50117338 7.48591293 0.55078125 9.72265625 C2.9135727 10.51735489 2.9135727 10.51735489 5.828125 10.37890625 C2.97545127 9.56083791 0.12117315 8.74932829 -2.734375 7.94140625 C-3.53423828 7.71130859 -4.33410156 7.48121094 -5.15820312 7.24414062 C-9.82885171 5.92873347 -14.35114653 4.9418638 -19.171875 4.37890625 C-19.171875 3.71890625 -19.171875 3.05890625 -19.171875 2.37890625 C-13.53064404 -1.83912568 -6.66166924 -1.9050457 0 0 Z " fill="#467518" transform="translate(267.171875,207.62109375)"/>
<path d="M0 0 C6.36651523 -0.45475109 10.73939458 0.24997003 16 4 C21.19704602 8.77653814 25.10617895 14.57225001 28 21 C28 21.66 28 22.32 28 23 C10.26951667 24.11072633 10.26951667 24.11072633 2.890625 18.77734375 C-1.56183811 14.59166046 -3.40307294 10.11850236 -4 4 C0.53847198 5.34927545 4.31932246 7.19159348 8.375 9.625 C9.43460937 10.25664062 10.49421875 10.88828125 11.5859375 11.5390625 C12.38257813 12.02117187 13.17921875 12.50328125 14 13 C12.2527456 11.70462174 10.50208483 10.41383727 8.75 9.125 C7.77546875 8.40570313 6.8009375 7.68640625 5.796875 6.9453125 C3.56097846 5.39017775 1.47127507 4.11795777 -1 3 C-0.67 2.01 -0.34 1.02 0 0 Z " fill="#4B781D" transform="translate(306,180)"/>
<path d="M0 0 C0.77601562 0.00644531 1.55203125 0.01289063 2.3515625 0.01953125 C4.375 0.1875 4.375 0.1875 6.375 1.1875 C6.375 1.8475 6.375 2.5075 6.375 3.1875 C5.87613281 3.43242187 5.37726563 3.67734375 4.86328125 3.9296875 C-2.62828689 7.83014488 -9.04307751 12.94841177 -15.625 18.1875 C-15.09132813 17.82398438 -14.55765625 17.46046875 -14.0078125 17.0859375 C-9.84275327 14.27560342 -5.64529699 11.52309708 -1.375 8.875 C-0.58609375 8.38386719 0.2028125 7.89273438 1.015625 7.38671875 C3.48507333 6.13155213 5.64688602 5.59865193 8.375 5.1875 C8.15413107 10.59878885 6.96202594 13.63169917 3.2578125 17.61328125 C-2.81267703 22.68881503 -10.1595069 24.33386406 -17.875 24.25 C-18.95265625 24.24097656 -20.0303125 24.23195312 -21.140625 24.22265625 C-21.96046875 24.21105469 -22.7803125 24.19945312 -23.625 24.1875 C-20.22780128 15.22399915 -15.08582994 6.14016222 -6.703125 1.01171875 C-4.32465168 0.06837689 -2.55047864 -0.04691516 0 0 Z " fill="#4A771D" transform="translate(120.625,169.8125)"/>
<path d="M0 0 C1.21236328 0.01353516 1.21236328 0.01353516 2.44921875 0.02734375 C3.37154297 0.04474609 3.37154297 0.04474609 4.3125 0.0625 C4.6425 1.0525 4.9725 2.0425 5.3125 3.0625 C4.69503906 3.41441406 4.07757813 3.76632813 3.44140625 4.12890625 C-2.65630561 7.68358455 -8.22181783 11.60017977 -13.6875 16.0625 C-12.97464844 15.60359375 -12.26179688 15.1446875 -11.52734375 14.671875 C3.47216387 5.0625 3.47216387 5.0625 7.3125 5.0625 C6.93237653 10.66932121 6.66092275 14.13831362 2.3125 18.0625 C-5.85558198 24.06015857 -14.03627236 23.60134025 -23.6875 23.0625 C-20.27881001 14.11070666 -15.64519184 6.61082672 -7.6875 1.0625 C-4.80538698 0.10179566 -2.98899956 -0.04331883 0 0 Z " fill="#48761B" transform="translate(49.6875,179.9375)"/>
<path d="M0 0 C0.66 0.33 1.32 0.66 2 1 C2 1.99 2 2.98 2 4 C0.34151823 5.01351664 -1.32665961 6.01120795 -3 7 C-7.33502001 11.93710612 -8.2271541 14.41253113 -8 21 C-7.83886719 21.62003906 -7.67773438 22.24007812 -7.51171875 22.87890625 C-3.45118925 39.70995599 -10.56485941 58.71049078 -19 73 C-19.96955085 74.35563598 -20.95527339 75.70141458 -22 77 C-22 76.34 -22 75.68 -22 75 C-22.66 74.67 -23.32 74.34 -24 74 C-23.34 74 -22.68 74 -22 74 C-21.73445312 73.16082031 -21.46890625 72.32164062 -21.1953125 71.45703125 C-20.15032935 68.43477607 -18.95937314 65.52842183 -17.68969727 62.59545898 C-14.45334871 55.01617702 -13.04518378 49.39103927 -14.5078125 41.1328125 C-16.35057998 29.40345124 -15.13118811 17.30078573 -8.0625 7.4375 C-5.66536917 4.55240361 -3.07455326 2.17027289 0 0 Z " fill="#EAEAEA" transform="translate(191,211)"/>
<path d="M0 0 C1.92005859 0.01933594 1.92005859 0.01933594 3.87890625 0.0390625 C7.16850322 0.34960623 9.4811337 0.95639813 12.4375 2.375 C9.08193879 8.24723213 4.51568544 12.33590728 -1.5625 15.375 C-3.20505791 15.49614921 -4.85302478 15.55040767 -6.5 15.5625 C-7.37527344 15.57667969 -8.25054687 15.59085938 -9.15234375 15.60546875 C-11.5625 15.375 -11.5625 15.375 -14.5625 13.375 C-14.2325 12.385 -13.9025 11.395 -13.5625 10.375 C-11.49609375 9.42578125 -11.49609375 9.42578125 -9 8.6875 C-8.17371094 8.43613281 -7.34742188 8.18476563 -6.49609375 7.92578125 C-5.85800781 7.74402344 -5.21992188 7.56226563 -4.5625 7.375 C-8.24516103 7.97450296 -11.90793185 8.62258891 -15.5625 9.375 C-14.61505763 5.96420746 -13.71790222 4.50275967 -10.94921875 2.2265625 C-6.96526295 0.04848286 -4.5097232 -0.10011494 0 0 Z " fill="#507C24" transform="translate(218.5625,135.625)"/>
<path d="M0 0 C-1.45925325 7.42892564 -4.09602767 12.85402997 -9.25 18.4375 C-13.06129624 20.60300923 -16.67433177 20.81151772 -21 21 C-20.49452628 16.91944849 -18.49911118 15.33727705 -15.4375 12.75 C-14.19806641 11.69039062 -14.19806641 11.69039062 -12.93359375 10.609375 C-12.29550781 10.07828125 -11.65742188 9.5471875 -11 9 C-11.53109375 9.39832031 -12.0621875 9.79664063 -12.609375 10.20703125 C-16.07291667 12.8046875 -19.53645833 15.40234375 -23 18 C-23.44202344 13.57976559 -23.34255088 11.52390134 -20.875 7.75 C-15.22961663 2.35006808 -7.86391884 -0.47660114 0 0 Z " fill="#4E7A22" transform="translate(283,137)"/>
<path d="M0 0 C-0.83832739 8.38327388 -4.38658794 14.38296105 -10.828125 19.72265625 C-14.36907254 21.80519194 -16.98682347 21.50164707 -21 21 C-19.59914312 16.24890105 -17.23282473 14.19301462 -13.375 11.1875 C-12.37210938 10.39730469 -11.36921875 9.60710938 -10.3359375 8.79296875 C-9.56507813 8.20128906 -8.79421875 7.60960937 -8 7 C-13.26630019 10.40554079 -18.2703193 13.87668862 -23 18 C-23.30376727 14.12696734 -23.41682253 11.71693475 -21.4375 8.3125 C-15.55340118 2.73014984 -8.20495199 -0.49726982 0 0 Z " fill="#4E7A22" transform="translate(265,37)"/>
<path d="M0 0 C-0.43844211 6.8689264 -2.64602258 12.96946695 -7.86328125 17.68359375 C-12.34562581 20.75595808 -15.62125665 21.56028577 -21 21 C-19.60043445 17.81405429 -17.93819724 15.71922532 -15.4375 13.3125 C-14.81746094 12.71050781 -14.19742187 12.10851562 -13.55859375 11.48828125 C-13.04425781 10.99714844 -12.52992188 10.50601563 -12 10 C-11.67 9.67 -11.34 9.34 -11 9 C-12.04800781 9.84884766 -12.04800781 9.84884766 -13.1171875 10.71484375 C-14.02726562 11.44832031 -14.93734375 12.18179688 -15.875 12.9375 C-16.77992188 13.66839844 -17.68484375 14.39929688 -18.6171875 15.15234375 C-21 17 -21 17 -23 18 C-23.54460502 14.88797134 -23.41478696 12.74405083 -21.86328125 9.9609375 C-16.43421735 2.94127619 -8.78821088 0 0 0 Z " fill="#4C791F" transform="translate(324,119)"/>
<path d="M0 0 C3 3.3 3 3.3 3 6 C-2 5 -7 4 -12 3 C-11.15695313 3.27714844 -10.31390625 3.55429688 -9.4453125 3.83984375 C-7.80175781 4.38318359 -7.80175781 4.38318359 -6.125 4.9375 C-5.03445312 5.29714844 -3.94390625 5.65679687 -2.8203125 6.02734375 C0 7 0 7 2 8 C2 8.66 2 9.32 2 10 C-2.36948134 12.45045237 -6.07541505 12.77884704 -11 12 C-17.05587488 9.53808353 -21.11021188 5.11271393 -25 0 C-19.40827844 -5.59172156 -5.98716916 -4.29848042 0 0 Z " fill="#4B781E" transform="translate(154,139)"/>
<path d="M0 0 C8.87752422 1.09337155 15.04984444 3.14859833 21.5 9.4375 C23.30108529 12.51435404 23.32635158 14.49172055 23 18 C17.66666667 14 12.33333333 10 7 6 C8.18197184 7.18197184 9.44036272 8.28543999 10.6875 9.3984375 C11.79168543 10.39060412 12.89585123 11.38279258 14 12.375 C14.83917969 13.1175 14.83917969 13.1175 15.6953125 13.875 C19.88733079 17.66199237 19.88733079 17.66199237 21 21 C15.41855587 21.48960036 12.02925346 21.25703998 7.60546875 17.68359375 C2.79383916 12.6378216 0.43929281 6.88225396 0 0 Z " fill="#4B781E" transform="translate(36,119)"/>
<path d="M0 0 C0.66 0 1.32 0 2 0 C5.88703786 6.87172764 7.11842907 13.13744366 6 21 C4.42766883 25.16346875 1.98904737 27.17308335 -2 29 C-2 24.66666667 -2 20.33333333 -2 16 C-2.66 19.96 -3.32 23.92 -4 28 C-4.66 28 -5.32 28 -6 28 C-8.696001 23.39433163 -9.85767008 20.31755447 -9 15 C-6.38375121 9.75387612 -3.24824724 4.87237086 0 0 Z " fill="#4B781E" transform="translate(204,14)"/>
<path d="M0 0 C0.66 0 1.32 0 2 0 C3.44692582 2.10085344 4.76961683 4.18241816 6.0625 6.375 C6.60874023 7.27992187 6.60874023 7.27992187 7.16601562 8.203125 C10.23311656 13.30551103 11.40356096 15.94658558 11 22 C9.5 25.4375 9.5 25.4375 8 28 C7.34 28 6.68 28 6 28 C5.01 22.39 4.02 16.78 3 11 C3.33 13.64 3.66 16.28 4 19 C4.06027831 20.83246055 4.08796215 22.66672511 4.0625 24.5 C4.05347656 25.3559375 4.04445312 26.211875 4.03515625 27.09375 C4.02355469 27.7228125 4.01195312 28.351875 4 29 C0.01095263 27.17308335 -2.42766883 25.16346875 -4 21 C-5.11842907 13.13744366 -3.88703786 6.87172764 0 0 Z " fill="#4B781E" transform="translate(154,14)"/>
<path d="M0 0 C7.92513071 0.85917305 13.89554016 2.72735667 20 8 C22.4294516 11.6441774 22.16179575 13.71241272 22 18 C20.5459375 16.700625 20.5459375 16.700625 19.0625 15.375 C14.96449858 11.84803156 10.54914461 8.90897683 6 6 C7.39025391 7.12148437 7.39025391 7.12148437 8.80859375 8.265625 C10.01863525 9.25992267 11.22824849 10.25474169 12.4375 11.25 C13.04916016 11.74113281 13.66082031 12.23226562 14.29101562 12.73828125 C14.87431641 13.22167969 15.45761719 13.70507812 16.05859375 14.203125 C16.59798584 14.64301758 17.13737793 15.08291016 17.69311523 15.53613281 C19.26255365 17.29409148 19.60226281 18.70387398 20 21 C14.26763402 21.45858928 11.44703453 20.65645061 7 17 C3.0925663 12.75764341 0.13822053 8.48796955 -0.1875 2.625 C-0.125625 1.75875 -0.06375 0.8925 0 0 Z " fill="#4B781E" transform="translate(78,137)"/>
<path d="M0 0 C-1.92083655 8.56988613 -4.37389791 15.06172854 -11.875 20.3125 C-14.93661784 21.30302342 -17.80963735 21.12270626 -21 21 C-19.60043445 17.81405429 -17.93819724 15.71922532 -15.4375 13.3125 C-14.81746094 12.71050781 -14.19742187 12.10851562 -13.55859375 11.48828125 C-13.04425781 10.99714844 -12.52992188 10.50601563 -12 10 C-11.67 9.67 -11.34 9.34 -11 9 C-11.61488281 9.48210937 -12.22976563 9.96421875 -12.86328125 10.4609375 C-13.67152344 11.09257813 -14.47976563 11.72421875 -15.3125 12.375 C-16.11300781 13.00148438 -16.91351563 13.62796875 -17.73828125 14.2734375 C-19.44663212 15.57756718 -21.21172726 16.80781817 -23 18 C-23.47868638 14.64919537 -23.65825324 12.09030262 -21.86328125 9.1171875 C-16.28243421 2.87420606 -8.28017092 0 0 0 Z " fill="#4A781D" transform="translate(286,75)"/>
<path d="M0 0 C8.92090986 0.64879344 16.0603286 3.13225495 22 10 C22.33 10.33 22.66 10.66 23 11 C23.04092937 13.33297433 23.04241723 15.66705225 23 18 C21.5459375 16.700625 21.5459375 16.700625 20.0625 15.375 C15.96449858 11.84803156 11.54914461 8.90897683 7 6 C8.26457031 6.99580078 8.26457031 6.99580078 9.5546875 8.01171875 C10.66188967 8.90311033 11.76863675 9.7950674 12.875 10.6875 C13.43058594 11.12255859 13.98617187 11.55761719 14.55859375 12.00585938 C17.88628617 14.71211526 19.81774547 16.84714388 21 21 C15.25375254 21.4596998 12.44869274 20.67500704 8 17 C3.51270857 12.51270857 1.51317608 8.15112228 0 2 C0 1.34 0 0.68 0 0 Z " fill="#4B781E" transform="translate(95,37)"/>
<path d="M0 0 C7.4336865 0.91554595 13.03207324 2.39416476 19 7 C20.2375 7.928125 20.2375 7.928125 21.5 8.875 C23.64630972 11.91560544 23.27853565 14.37903649 23 18 C18.21224044 14.46386286 13.53548584 10.85516296 9 7 C9.680625 7.680625 10.36125 8.36125 11.0625 9.0625 C11.51109375 9.51367188 11.9596875 9.96484375 12.421875 10.4296875 C13.56801177 11.57015032 14.72586815 12.69887306 15.890625 13.8203125 C16.84195313 14.74457031 16.84195313 14.74457031 17.8125 15.6875 C18.41707031 16.26886719 19.02164063 16.85023437 19.64453125 17.44921875 C21 19 21 19 21 21 C14.93033732 21.41859743 11.79767662 21.14344799 7 17 C3.27589664 12.42467301 0 6.06639444 0 0 Z " fill="#4A771D" transform="translate(74,75)"/>
<path d="M0 0 C0.99 0.33 1.98 0.66 3 1 C3 1.66 3 2.32 3 3 C3.99 2.01 4.98 1.02 6 0 C8.9962831 4.49442466 8.82685992 8.73685687 8 14 C5.4942792 19.06172362 1.58681304 22.76224962 -3 26 C-6.62898997 22.37101003 -6.10458268 17.34202944 -6.25 12.4375 C-6.20914592 8.14198546 -5.91984911 5.35241934 -3 2 C-2.01 1.34 -1.02 0.68 0 0 Z " fill="#517D26" transform="translate(107,235)"/>
<path d="M0 0 C4.14158698 3.55570049 4.34439181 7.78747785 5 13 C6.57121009 34.71158697 4.17582189 54.19798058 -9.203125 71.91796875 C-18.61961271 82.79960927 -30.35847558 91.41414219 -45 93 C-42.60310844 90.60310844 -40.53007612 89.91358654 -37.375 88.6875 C-22.40372974 82.54910075 -11.74348904 72.96119243 -5.10400391 57.97802734 C-3.20333376 53.38661718 -1.49231651 48.73968989 0 44 C0.37898438 42.79859375 0.75796875 41.5971875 1.1484375 40.359375 C2.54706423 34.51709107 2.28913149 28.53331248 2.25 22.5625 C2.25773437 21.38623047 2.26546875 20.20996094 2.2734375 18.99804688 C2.25856336 12.34558567 1.73221523 6.42706842 0 0 Z " fill="#A17546" transform="translate(190,223)"/>
<path d="M0 0 C3.80195622 0.5431366 5.50130343 2.15665563 8 5 C11.06813187 11.13626374 8.88838257 19.74473275 7 26 C3.8785222 24.64195446 2.03041771 23.18624145 -0.125 20.5625 C-0.62257812 19.96566406 -1.12015625 19.36882812 -1.6328125 18.75390625 C-4.57225728 14.98301852 -5.23632309 13.04373122 -5.125 8.3125 C-5.10695312 7.31863281 -5.08890625 6.32476562 -5.0703125 5.30078125 C-5.04710937 4.54152344 -5.02390625 3.78226563 -5 3 C-3.68 2.34 -2.36 1.68 -1 1 C-0.34956281 2.72744016 0.29514844 4.4570369 0.9375 6.1875 C1.47697266 7.63189453 1.47697266 7.63189453 2.02734375 9.10546875 C2.91156562 11.7368278 3.52568586 14.26894908 4 17 C2.56115528 8.36153461 2.56115528 8.36153461 0 0 Z " fill="#4B781E" transform="translate(250,235)"/>
<path d="M0 0 C1.65843848 6.2191443 2.19919298 12.64444236 -0.75 18.4375 C-2.73341781 20.69639251 -4.42866015 22.45719609 -7 24 C-7.66 24 -8.32 24 -9 24 C-8.52060632 19.28596212 -8.03165952 15.33420699 -6 11 C-6.26554688 11.53109375 -6.53109375 12.0621875 -6.8046875 12.609375 C-8.53645833 16.07291667 -10.26822917 19.53645833 -12 23 C-14.50304378 19.24543433 -14.45280074 17.45254066 -14 13 C-11.74433259 8.48866518 -5.63005001 0 0 0 Z " fill="#4E7A21" transform="translate(187,123)"/>
<path d="M0 0 C1.625 1.30078125 1.625 1.30078125 3.75 3.98828125 C3.75 4.97828125 3.75 5.96828125 3.75 6.98828125 C2.99074219 6.77171875 2.23148438 6.55515625 1.44921875 6.33203125 C0.45535156 6.05359375 -0.53851563 5.77515625 -1.5625 5.48828125 C-2.54863281 5.20984375 -3.53476563 4.93140625 -4.55078125 4.64453125 C-7.27287203 3.87015929 -7.27287203 3.87015929 -10.25 3.98828125 C-8.85974609 4.38660156 -8.85974609 4.38660156 -7.44140625 4.79296875 C-5.64509766 5.32277344 -5.64509766 5.32277344 -3.8125 5.86328125 C-2.02005859 6.38535156 -2.02005859 6.38535156 -0.19140625 6.91796875 C2.75 7.98828125 2.75 7.98828125 3.75 9.98828125 C-0.59011694 12.44309852 -4.35366717 12.67069698 -9.25 11.98828125 C-14.09920339 9.56367955 -17.07879624 6.2787334 -20.25 1.98828125 C-20.25 1.32828125 -20.25 0.66828125 -20.25 -0.01171875 C-14.18554564 -1.85217505 -5.85236103 -2.63153039 0 0 Z " fill="#4D7920" transform="translate(136.25,115.01171875)"/>
<path d="M0 0 C6.78914249 0.43334952 13.12896616 2.78367479 17.75390625 7.96484375 C19.43615521 10.71234128 19.21527232 12.84267266 19 16 C18.54109375 15.59007813 18.0821875 15.18015625 17.609375 14.7578125 C16.68898437 13.94957031 16.68898437 13.94957031 15.75 13.125 C15.14671875 12.59132813 14.5434375 12.05765625 13.921875 11.5078125 C12.02581254 10.0202513 10.18709995 8.99677564 8 8 C8.48210937 8.37511719 8.96421875 8.75023438 9.4609375 9.13671875 C13.12850346 12.10819566 15.74618833 14.26337814 17 19 C13.28306946 19.35399338 11.24878287 19.12439143 7.875 17.4375 C3.19279984 13.46780856 1.02312503 9.54627592 0.25 3.5625 C0.1675 2.386875 0.085 1.21125 0 0 Z " fill="#4B781E" transform="translate(166,75)"/>
<path d="M0 0 C-1.71100614 5.98852148 -6.00538168 8.67025445 -11 12 C-13.375 12.30078125 -13.375 12.30078125 -16 12.3125 C-17.299375 12.33763672 -17.299375 12.33763672 -18.625 12.36328125 C-21 12 -21 12 -24 9 C-21.03 7.68 -18.06 6.36 -15 5 C-17.97 5.66 -20.94 6.32 -24 7 C-23 3 -23 3 -21.1875 0.75 C-14.94180203 -2.67901065 -6.79631412 -1.51029203 0 0 Z " fill="#4C791F" transform="translate(244,115)"/>
<path d="M0 0 C4.86861843 2.11219889 7.49940193 5.38115831 10 10 C10.96554101 13.37686595 11.580637 16.51617802 11 20 C9.68 21.32 8.36 22.64 7 24 C5.68 18.72 4.36 13.44 3 8 C4.60679587 14.42718346 5.2206398 17.82208548 5 24 C1.82865008 23.77347501 0.94390056 22.9392256 -1.25 20.5625 C-3.80352986 15.36424278 -4.04535546 10.36305785 -2.31640625 4.80078125 C-1.62290247 3.1649087 -0.82188836 1.57528602 0 0 Z " fill="#4E7A21" transform="translate(205,89)"/>
<path d="M0 0 C0.99 0.33 1.98 0.66 3 1 C5.45950927 6.04846641 5.73146449 11.49617572 5 17 C2.30120482 22.4939759 2.30120482 22.4939759 -1.25 23.875 C-1.8275 23.91625 -2.405 23.9575 -3 24 C-3.07972012 19.2965127 -2.93491183 15.67455917 -2 11 C-2.99 15.29 -3.98 19.58 -5 24 C-9 20 -9 20 -9.453125 17.7734375 C-8.79644853 10.01960377 -5.21796785 5.58643483 0 0 Z " fill="#4E7A21" transform="translate(153,89)"/>
<path d="M0 0 C0.66 0.33 1.32 0.66 2 1 C1.443125 1.52207031 0.88625 2.04414063 0.3125 2.58203125 C-11.60698643 14.07869806 -20.53823221 27.92789946 -26.4375 43.375 C-26.6845166 44.01655029 -26.9315332 44.65810059 -27.18603516 45.3190918 C-30.63192193 54.83519179 -30.12451241 64.5358926 -30.0625 74.5 C-30.05747533 75.90885258 -30.05291413 77.31770689 -30.04882812 78.7265625 C-30.0371003 82.15108638 -30.02068691 85.57552047 -30 89 C-35.29554571 83.70445429 -33.36944667 71.09365659 -33.38061523 64.11767578 C-33.03035102 38.82472715 -20.03363669 20.08357229 -2.75 2.625 C-1.8425 1.75875 -0.935 0.8925 0 0 Z " fill="#AC7D4B" transform="translate(199,182)"/>
<path d="M0 0 C3.42859392 6.40004198 4.08400118 13.23358303 2.46875 20.3359375 C0.73050236 25.7207264 -1.61343461 30.87554741 -4 36 C-4.99 36 -5.98 36 -7 36 C-7.33 35.34 -7.66 34.68 -8 34 C-7.11157533 31.48769977 -6.16780033 29.07210477 -5.125 26.625 C-2.31927555 19.93738282 -0.85536362 14.49753619 -0.4375 7.25 C-0.39431641 6.55261719 -0.35113281 5.85523437 -0.30664062 5.13671875 C-0.20110404 3.42468078 -0.1001009 1.71236439 0 0 Z " fill="#1B1B1B" transform="translate(201,62)"/>
<path d="M0 0 C1.49003149 3.87408187 0.31985344 6.18709006 -1 10 C-2.36311385 17.78385014 -2.1115057 25.62580179 -2.0625 33.5 C-2.05747533 34.90885258 -2.05291413 36.31770689 -2.04882812 37.7265625 C-2.0371003 41.15108638 -2.02068691 44.57552047 -2 48 C-6.87413024 43.12586976 -5.2206887 32.68382945 -5.25 26.25 C-5.270625 25.13367188 -5.29125 24.01734375 -5.3125 22.8671875 C-5.34650622 15.57285365 -4.69871086 8.83902742 -2 2 C-1.34 1.34 -0.68 0.68 0 0 Z " fill="#996F43" transform="translate(171,223)"/>
<path d="M0 0 C0 0.33 0 0.66 0 1 C-0.7425 1.144375 -1.485 1.28875 -2.25 1.4375 C-4.85614714 1.92554248 -4.85614714 1.92554248 -6.77832031 2.54272461 C-9.68170275 3.14031091 -12.3358731 3.00460916 -15.296875 2.87890625 C-16.50214844 2.83056641 -17.70742187 2.78222656 -18.94921875 2.73242188 C-20.83060547 2.64831055 -20.83060547 2.64831055 -22.75 2.5625 C-24.01972656 2.51029297 -25.28945312 2.45808594 -26.59765625 2.40429688 C-29.73202407 2.27468016 -32.86606874 2.13971529 -36 2 C-35.67 1.34 -35.34 0.68 -35 0 C-24.1906307 -2.3054188 -10.83860328 -1.80643388 0 0 Z " fill="#C1D0B1" transform="translate(103,114)"/>
<path d="M0 0 C1.625 1.4375 1.625 1.4375 3 4 C2.50701609 10.66212981 -0.41404797 16.33797459 -3.625 22.0625 C-4.04523438 22.83271484 -4.46546875 23.60292969 -4.8984375 24.39648438 C-5.9223552 26.26978835 -6.95976373 28.13570824 -8 30 C-8.33 29.34 -8.66 28.68 -9 28 C-9.66 27.67 -10.32 27.34 -11 27 C-10.34 27 -9.68 27 -9 27 C-8.73316406 26.1646875 -8.46632812 25.329375 -8.19140625 24.46875 C-6.68732678 20.08965961 -4.91954897 15.83148316 -3.12304688 11.56640625 C-1.54553436 7.71900665 -0.51580328 4.12642625 0 0 Z " fill="#DADADA" transform="translate(178,258)"/>
<path d="M0 0 C1.01513672 -0.00386719 2.03027344 -0.00773438 3.07617188 -0.01171875 C7.97271494 -0.00532222 12.6262767 0.08873652 17.4375 1.125 C16.7775 1.455 16.1175 1.785 15.4375 2.125 C15.4375 2.785 15.4375 3.445 15.4375 4.125 C14.57439209 4.02650757 14.57439209 4.02650757 13.69384766 3.92602539 C6.73880169 3.17656516 -0.19877546 2.8214989 -7.1875 2.5625 C-8.28707031 2.51931641 -9.38664062 2.47613281 -10.51953125 2.43164062 C-13.20042882 2.32673594 -15.88140001 2.22457274 -18.5625 2.125 C-18.5625 1.795 -18.5625 1.465 -18.5625 1.125 C-12.35964063 0.0257591 -6.28922441 -0.02405057 0 0 Z " fill="#DEE6D6" transform="translate(53.5625,153.875)"/>
<path d="M0 0 C3.93240776 1.66627448 6.97871347 4.31097142 10.1875 7.0625 C11.04154419 7.7891687 11.04154419 7.7891687 11.9128418 8.53051758 C16.85382237 12.78063661 21.49707067 17.2876321 26 22 C25.01 22.99 24.02 23.98 23 25 C22.50371094 24.35933594 22.00742188 23.71867187 21.49609375 23.05859375 C15.42363232 15.32686393 9.00016285 8.72689303 1.50390625 2.3828125 C1.00761719 1.92648438 0.51132813 1.47015625 0 1 C0 0.67 0 0.34 0 0 Z " fill="#E8EEE2" transform="translate(103,66)"/>
<path d="M0 0 C6.18810226 7.40456681 9.47747152 20.4505697 9 30 C7.29986265 27.44979397 6.47175402 25.75125401 5.5625 22.91015625 C5.30726563 22.12576172 5.05203125 21.34136719 4.7890625 20.53320312 C4.39847656 19.31020508 4.39847656 19.31020508 4 18.0625 C3.48202012 16.44830032 2.9612753 14.83498475 2.4375 13.22265625 C2.09525391 12.15156616 2.09525391 12.15156616 1.74609375 11.05883789 C1.03688885 8.95085713 1.03688885 8.95085713 -0.11328125 6.90795898 C-1.31773573 4.31632579 -0.74737544 2.69055158 0 0 Z " fill="#D6E0CC" transform="translate(279,178)"/>
<path d="M0 0 C2.06257104 4.12514209 2.23756602 5.81800138 2.1953125 10.296875 C2.18886719 11.50214844 2.18242187 12.70742188 2.17578125 13.94921875 C2.15902344 15.20347656 2.14226562 16.45773438 2.125 17.75 C2.11597656 19.01972656 2.10695312 20.28945313 2.09765625 21.59765625 C2.07409005 24.73196093 2.04118832 27.86588541 2 31 C1.01 31 0.02 31 -1 31 C-0.67 20.77 -0.34 10.54 0 0 Z " fill="#E8EDE2" transform="translate(180,41)"/>
<path d="M0 0 C0.825 0.556875 1.65 1.11375 2.5 1.6875 C3.33241211 2.23567383 3.33241211 2.23567383 4.18164062 2.79492188 C5.37828594 3.58797253 6.56496773 4.39630172 7.74023438 5.22070312 C12.93449961 8.71821154 17.93586661 10.39194648 24 11.8125 C24.87011719 12.02841797 25.74023438 12.24433594 26.63671875 12.46679688 C28.75473272 12.99048165 30.87696367 13.49706297 33 14 C33 14.33 33 14.66 33 15 C20.28167275 14.60130636 10.30805522 12.13843234 1 3 C0.67 2.01 0.34 1.02 0 0 Z " fill="#8E683E" transform="translate(197,301)"/>
<path d="M0 0 C4.27060911 1.98818254 7.46025144 4.75039534 11 7.8125 C11.61617187 8.33392578 12.23234375 8.85535156 12.8671875 9.39257812 C16.31435923 12.3552225 19.28215505 15.3241147 22 19 C21.01 19.66 20.02 20.32 19 21 C18.443125 20.28714844 17.88625 19.57429688 17.3125 18.83984375 C13.08340499 13.53204376 8.91493075 8.70903495 3.62890625 4.4375 C2 3 2 3 0 0 Z " fill="#D9E2CF" transform="translate(128,40)"/>
<path d="M0 0 C1.23363281 0.0918457 1.23363281 0.0918457 2.4921875 0.18554688 C4.49605377 0.33700188 6.49827296 0.50999643 8.5 0.6875 C8.5 1.0175 8.5 1.3475 8.5 1.6875 C7.19804687 1.89246094 5.89609375 2.09742188 4.5546875 2.30859375 C2.82812282 2.58071536 1.10156044 2.85285154 -0.625 3.125 C-1.4809375 3.25970703 -2.336875 3.39441406 -3.21875 3.53320312 C-7.64924955 4.23185882 -12.07729031 4.94071459 -16.5 5.6875 C-16.83 4.6975 -17.16 3.7075 -17.5 2.6875 C-11.28076462 -0.08690661 -6.73491879 -0.61974416 0 0 Z " fill="#433424" transform="translate(149.5,202.3125)"/>
<path d="M0 0 C0.66 0.33 1.32 0.66 2 1 C-5.31397459 8.47731397 -5.31397459 8.47731397 -8.625 11 C-12.03341097 13.87024081 -14.43990948 17.37540448 -17 21 C-17.99 20.67 -18.98 20.34 -20 20 C-16.58614332 12.45012465 -9.41048371 7.58705523 -3.0390625 2.6015625 C-1.12020654 1.15997762 -1.12020654 1.15997762 0 0 Z " fill="#E1E9DA" transform="translate(230,40)"/>
<path d="M0 0 C0.33 0 0.66 0 1 0 C0.48035279 5.1315162 -0.71122782 9.01444451 -3 13.625 C-4.88650798 17.44336471 -6.37163207 20.77422566 -7 25 C-9 22 -9 22 -8.87890625 18.80859375 C-7.85857825 14.38717243 -6.1630215 10.9792641 -3.9375 7.0625 C-3.56044922 6.37865234 -3.18339844 5.69480469 -2.79492188 4.99023438 C-1.87299058 3.32142204 -0.93784488 1.65992136 0 0 Z " fill="#DCDDDC" transform="translate(190,289)"/>
<path d="M0 0 C0.66 0.33 1.32 0.66 2 1 C2 1.99 2 2.98 2 4 C0.34151823 5.01351664 -1.32665961 6.01120795 -3 7 C-6.99746189 10.99746189 -7.90362703 14.60949956 -9 20 C-10.5625 18.8125 -10.5625 18.8125 -12 17 C-12.14912984 11.78045556 -8.26034625 7.73613841 -5 4 C-2.125 1.5 -2.125 1.5 0 0 Z " fill="#D5D6D5" transform="translate(191,211)"/>
<path d="M0 0 C1.1015625 1.75390625 1.1015625 1.75390625 2 4 C1.4609375 5.90234375 1.4609375 5.90234375 0.375 7.9375 C-2.47623521 13.7369512 -4.20096918 19.80865459 -6 26 C-6.33 26 -6.66 26 -7 26 C-6.38208327 16.73124902 -3.48366386 8.56075245 0 0 Z " fill="#DBE4D3" transform="translate(135,219)"/>
<path d="M0 0 C-0.33 0.99 -0.66 1.98 -1 3 C-1 2.34 -1 1.68 -1 1 C-9.37896748 4.92130911 -16.96205594 8.87438202 -24 15 C-24.66 14.67 -25.32 14.34 -26 14 C-23.63043786 12.05551198 -21.25478672 10.11940552 -18.875 8.1875 C-18.20984375 7.64029297 -17.5446875 7.09308594 -16.859375 6.52929688 C-6.27627841 -2.03056066 -6.27627841 -2.03056066 0 0 Z " fill="#C5D3B6" transform="translate(130,174)"/>
<path d="M0 0 C0.66 0.33 1.32 0.66 2 1 C0.77023438 2.19496094 0.77023438 2.19496094 -0.484375 3.4140625 C-1.57318606 4.48410095 -2.66171263 5.55442893 -3.75 6.625 C-4.28882813 7.14707031 -4.82765625 7.66914062 -5.3828125 8.20703125 C-8.78834194 11.57102984 -11.48050858 14.92722989 -14 19 C-14.33 18.34 -14.66 17.68 -15 17 C-15.66 16.67 -16.32 16.34 -17 16 C-14.91975578 13.89270058 -12.83597761 11.78911127 -10.75 9.6875 C-9.87021484 8.79514648 -9.87021484 8.79514648 -8.97265625 7.88476562 C-6.12147184 5.01756332 -3.34887496 2.29613457 0 0 Z " fill="#E6ECDF" transform="translate(248,72)"/>
<path d="M0 0 C0.66 1.32 1.32 2.64 2 4 C0.54420484 6.12677894 -0.91450225 8.2514542 -2.375 10.375 C-2.7875 10.97828125 -3.2 11.5815625 -3.625 12.203125 C-5.3022395 14.63782751 -6.90467771 16.90467771 -9 19 C-9.8357887 16.65344961 -10.21745975 15.49497667 -9.19555664 13.16894531 C-8.77137451 12.56147461 -8.34719238 11.95400391 -7.91015625 11.328125 C-7.45576172 10.66425781 -7.00136719 10.00039062 -6.53320312 9.31640625 C-6.04787109 8.63449219 -5.56253906 7.95257813 -5.0625 7.25 C-4.58103516 6.55261719 -4.09957031 5.85523438 -3.60351562 5.13671875 C-2.41359763 3.41663927 -1.20824463 1.70725604 0 0 Z " fill="#E0E1E0" transform="translate(178,192)"/>
<path d="M0 0 C0.99 0.33 1.98 0.66 3 1 C-0.72616094 4.18481303 -4.50166641 6.48169389 -8.875 8.6875 C-10.63457031 9.59048828 -10.63457031 9.59048828 -12.4296875 10.51171875 C-16.15374364 12.06408789 -19.02229949 12.61850698 -23 13 C-20.60310844 10.60310844 -18.53007612 9.91358654 -15.375 8.6875 C-7.09447544 5.33972995 -7.09447544 5.33972995 0 0 Z " fill="#91693F" transform="translate(168,303)"/>
<path d="M0 0 C0 1.65 0 3.3 0 5 C-0.33 3.68 -0.66 2.36 -1 1 C-8.22260607 4.39462485 -14.84167594 7.89221357 -21 13 C-21.66 12.67 -22.32 12.34 -23 12 C-20.75340093 10.20392214 -18.50296211 8.41306517 -16.25 6.625 C-15.29867187 5.86316406 -15.29867187 5.86316406 -14.328125 5.0859375 C-13.709375 4.59609375 -13.090625 4.10625 -12.453125 3.6015625 C-11.88754883 3.15119629 -11.32197266 2.70083008 -10.73925781 2.23681641 C-6.81017125 -0.55722521 -4.73841711 -1.31622698 0 0 Z " fill="#C9D6BC" transform="translate(58,184)"/>
<path d="M0 0 C0.804375 0.4640625 0.804375 0.4640625 1.625 0.9375 C5.33916989 2.59910232 8.95600131 3 13 3 C13.66 2.67 14.32 2.34 15 2 C14.625 3.9375 14.625 3.9375 14 6 C11.06699268 7.46650366 9.27962656 7.36440295 6 7 C3.17668112 5.54771727 0.58592235 3.83771131 -2 2 C-1.34 1.34 -0.68 0.68 0 0 Z " fill="#7F5C37" transform="translate(151,121)"/>
<path d="M0 0 C0.33 0.66 0.66 1.32 1 2 C-0.07408957 4.60474038 -1.20045633 7.09966038 -2.4375 9.625 C-2.77587891 10.33140625 -3.11425781 11.0378125 -3.46289062 11.765625 C-4.30154879 13.51381384 -5.14987847 15.25735686 -6 17 C-6.99 17 -7.98 17 -9 17 C-7.26459862 11.20218175 -5.29229697 6.09775015 -2 1 C-1.34 0.67 -0.68 0.34 0 0 Z " fill="#AF7F4C" transform="translate(179,207)"/>
<path d="M0 0 C4.32046898 1.41680244 7.00461199 3.53763785 10.3125 6.625 C11.19550781 7.44226563 12.07851562 8.25953125 12.98828125 9.1015625 C13.65214844 9.72804688 14.31601563 10.35453125 15 11 C15.66 9.68 16.32 8.36 17 7 C17 8.98 17 10.96 17 13 C16.34 13 15.68 13 15 13 C14.67 13.66 14.34 14.32 14 15 C13.57589844 14.49210937 13.15179688 13.98421875 12.71484375 13.4609375 C8.76884164 8.82980536 4.66198393 4.9008437 0 1 C0 0.67 0 0.34 0 0 Z " fill="#B1C59E" transform="translate(81,81)"/>
<path d="M0 0 C0.66 0.33 1.32 0.66 2 1 C-3.87371888 7.46852586 -9.75028727 13.88916977 -16 20 C-16.66 19.67 -17.32 19.34 -18 19 C-16.700625 17.73542969 -16.700625 17.73542969 -15.375 16.4453125 C-14.24973959 15.33880643 -13.12475372 14.23202112 -12 13.125 C-11.42765625 12.56941406 -10.8553125 12.01382813 -10.265625 11.44140625 C-8.80549218 9.99865596 -7.39850702 8.5025626 -6 7 C-6 6.34 -6 5.68 -6 5 C-4.04072937 3.2856382 -2.04119788 1.61594832 0 0 Z " fill="#70944C" transform="translate(255,66)"/>
<path d="M0 0 C4.49108752 1.42860919 7.46169316 3.93077292 10.8125 7.125 C11.31458984 7.59292969 11.81667969 8.06085937 12.33398438 8.54296875 C13.56189455 9.68901825 14.78178215 10.84365311 16 12 C16.66 10.68 17.32 9.36 18 8 C18 9.98 18 11.96 18 14 C17.34 14 16.68 14 16 14 C15.67 14.66 15.34 15.32 15 16 C14.566875 15.195625 14.13375 14.39125 13.6875 13.5625 C10.76633926 9.089807 6.42831183 6.1082489 2.265625 2.85546875 C1.51796875 2.24316406 0.7703125 1.63085938 0 1 C0 0.67 0 0.34 0 0 Z " fill="#DBE3D2" transform="translate(101,42)"/>
<path d="M0 0 C4.49108752 1.42860919 7.46169316 3.93077292 10.8125 7.125 C11.31458984 7.59292969 11.81667969 8.06085938 12.33398438 8.54296875 C13.56189455 9.68901825 14.78178215 10.84365311 16 12 C16.66 10.68 17.32 9.36 18 8 C18 9.98 18 11.96 18 14 C17.34 14 16.68 14 16 14 C15.67 14.66 15.34 15.32 15 16 C14.566875 15.195625 14.13375 14.39125 13.6875 13.5625 C10.76633926 9.089807 6.42831183 6.1082489 2.265625 2.85546875 C1.51796875 2.24316406 0.7703125 1.63085938 0 1 C0 0.67 0 0.34 0 0 Z " fill="#D9E2D0" transform="translate(83,142)"/>
<path d="M0 0 C0.66 0.33 1.32 0.66 2 1 C1 4 1 4 -1.8359375 5.640625 C-3.00382812 6.17171875 -4.17171875 6.7028125 -5.375 7.25 C-6.53773437 7.79140625 -7.70046875 8.3328125 -8.8984375 8.890625 C-12 10 -12 10 -15 9 C-12.87562549 7.68647829 -10.75053408 6.37414287 -8.625 5.0625 C-8.02171875 4.68931641 -7.4184375 4.31613281 -6.796875 3.93164062 C-2.2265625 1.11328125 -2.2265625 1.11328125 0 0 Z " fill="#2D2D2D" transform="translate(60,318)"/>
<path d="M0 0 C0.99 0.66 1.98 1.32 3 2 C2.81824219 2.53367188 2.63648437 3.06734375 2.44921875 3.6171875 C0.5063945 9.37591783 -1.28384432 15.16993922 -3 21 C-3.33 21 -3.66 21 -4 21 C-3.39700836 13.76410027 -1.8849413 7.00629124 0 0 Z " fill="#C9D7BC" transform="translate(76,187)"/>
<path d="M0 0 C0.66 0.33 1.32 0.66 2 1 C0.57637507 2.66089575 -0.84758734 4.32148195 -2.2734375 5.98046875 C-3.41055215 7.31053272 -4.54096303 8.64636193 -5.6640625 9.98828125 C-6.18742188 10.61089844 -6.71078125 11.23351562 -7.25 11.875 C-7.72953125 12.44992187 -8.2090625 13.02484375 -8.703125 13.6171875 C-10 15 -10 15 -12 16 C-10.15401218 9.43648776 -4.73506693 4.6626653 0 0 Z " fill="#212121" transform="translate(146,328)"/>
<path d="M0 0 C6.61519148 3.30759574 11.63820705 7.95106821 17 13 C16.01 14.485 16.01 14.485 15 16 C14.5875 15.49210938 14.175 14.98421875 13.75 14.4609375 C10.02435299 10.02009933 6.30280248 6.48653375 1.50390625 3.2265625 C1.00761719 2.82179688 0.51132812 2.41703125 0 2 C0 1.34 0 0.68 0 0 Z " fill="#BCCDAB" transform="translate(42,124)"/>
<path d="M0 0 C-1.98 0.99 -3.96 1.98 -6 3 C-6 2.34 -6 1.68 -6 1 C-13.26 1 -20.52 1 -28 1 C-28 0.67 -28 0.34 -28 0 C-24.08375299 -0.19706355 -20.16699634 -0.38099159 -16.25 -0.5625 C-15.13882813 -0.61857422 -14.02765625 -0.67464844 -12.8828125 -0.73242188 C-11.81289062 -0.78076172 -10.74296875 -0.82910156 -9.640625 -0.87890625 C-8.65610352 -0.9260376 -7.67158203 -0.97316895 -6.65722656 -1.02172852 C-4.2293192 -1.00187518 -2.30838443 -0.71119313 0 0 Z " fill="#ADAEAD" transform="translate(154,324)"/>
<path d="M0 0 C0.66 0.33 1.32 0.66 2 1 C1.08476562 1.84304687 0.16953125 2.68609375 -0.7734375 3.5546875 C-1.97397861 4.66143634 -3.17449833 5.76820838 -4.375 6.875 C-5.27992188 7.70837891 -5.27992188 7.70837891 -6.203125 8.55859375 C-6.78320312 9.09355469 -7.36328125 9.62851563 -7.9609375 10.1796875 C-8.49509277 10.67194824 -9.02924805 11.16420898 -9.57958984 11.67138672 C-10.74144818 12.75815762 -11.87505872 13.87505872 -13 15 C-13.33 14.01 -13.66 13.02 -14 12 C-12.41856529 10.56041153 -10.83477221 9.12341355 -9.25 7.6875 C-8.36828125 6.88699219 -7.4865625 6.08648437 -6.578125 5.26171875 C-4.44550672 3.39083089 -2.29812057 1.65915714 0 0 Z " fill="#C1D1B2" transform="translate(315,125)"/>
<path d="M0 0 C3.83215739 1.37847388 6.92743511 3.15231942 10.25 5.5 C11.12140625 6.1084375 11.9928125 6.716875 12.890625 7.34375 C15 9 15 9 16 11 C12.36592837 9.64293196 9.12987933 8.00749128 5.8125 6 C4.95269531 5.484375 4.09289062 4.96875 3.20703125 4.4375 C1 3 1 3 -1 1 C-0.67 0.67 -0.34 0.34 0 0 Z " fill="#DCE5D4" transform="translate(305,183)"/>
<path d="M0 0 C3.23861303 1.44424635 5.61969163 3.25772247 8.25 5.625 C8.95640625 6.25664063 9.6628125 6.88828125 10.390625 7.5390625 C10.92171875 8.02117187 11.4528125 8.50328125 12 9 C12.66 8.01 13.32 7.02 14 6 C14 7.65 14 9.3 14 11 C13.34 11 12.68 11 12 11 C11.67 11.66 11.34 12.32 11 13 C10.2265625 11.700625 10.2265625 11.700625 9.4375 10.375 C7.23262656 7.02391076 4.50499749 4.6920253 1.390625 2.19921875 C0.93171875 1.80347656 0.4728125 1.40773438 0 1 C0 0.67 0 0.34 0 0 Z " fill="#BDCDAC" transform="translate(172,81)"/>
<path d="M0 0 C1.58409994 0.11487748 3.16728963 0.24234508 4.75 0.375 C6.07257813 0.47941406 6.07257813 0.47941406 7.421875 0.5859375 C10.01488455 1.00239055 11.67690025 1.83845013 14 3 C15.32 3 16.64 3 18 3 C18 3.66 18 4.32 18 5 C13.9154674 6.72251754 10.63026304 5.07280563 6.75 3.5625 C6.1003125 3.31951172 5.450625 3.07652344 4.78125 2.82617188 C3.18383183 2.22714006 1.59139406 1.61485679 0 1 C0 0.67 0 0.34 0 0 Z " fill="#C1D0B1" transform="translate(140,141)"/>
<path d="M0 0 C0.66 0.33 1.32 0.66 2 1 C-4.435 6.94 -4.435 6.94 -11 13 C-11.66 12.34 -12.32 11.68 -13 11 C-11.58510266 9.72719706 -10.16800334 8.4568417 -8.75 7.1875 C-7.96109375 6.47980469 -7.1721875 5.77210937 -6.359375 5.04296875 C-4.2983167 3.25831065 -2.20394477 1.60240938 0 0 Z " fill="#BBCCAB" transform="translate(277,81)"/>
<path d="M0 0 C4.10110762 1.40398279 6.98089159 3.37087038 10.3125 6.125 C11.19550781 6.84945312 12.07851562 7.57390625 12.98828125 8.3203125 C13.65214844 8.87460938 14.31601563 9.42890625 15 10 C11.16303788 10 9.63021322 8.70812847 6.4375 6.625 C5.46683594 5.99851563 4.49617187 5.37203125 3.49609375 4.7265625 C1 3 1 3 -1 1 C-0.67 0.67 -0.34 0.34 0 0 Z " fill="#CFDBC4" transform="translate(237,175)"/>
<path d="M0 0 C3.75730247 1.6281644 6.616823 4.01401917 9.75 6.625 C11.22726563 7.85089844 11.22726563 7.85089844 12.734375 9.1015625 C13.85585937 10.04128906 13.85585937 10.04128906 15 11 C14.34 11.66 13.68 12.32 13 13 C10.8303243 11.02404535 8.66418031 9.04445723 6.5 7.0625 C5.87996094 6.49853516 5.25992188 5.93457031 4.62109375 5.35351562 C3.06178382 3.92272025 1.52862521 2.46353265 0 1 C0 0.67 0 0.34 0 0 Z " fill="#BECEAE" transform="translate(103,66)"/>
<path d="M0 0 C3.23201584 0.37344721 5.55649103 1.81171917 8.25 3.5625 C8.95640625 4.01753906 9.6628125 4.47257812 10.390625 4.94140625 C11.18726563 5.46541016 11.18726563 5.46541016 12 6 C8.08428299 7.305239 6.96107003 6.32239848 3.3125 4.5625 C2.31863281 4.08941406 1.32476562 3.61632812 0.30078125 3.12890625 C-0.45847656 2.75636719 -1.21773438 2.38382812 -2 2 C-1.34 1.34 -0.68 0.68 0 0 Z " fill="#3D3D3D" transform="translate(303,321)"/>
<path d="M0 0 C0.66 0.33 1.32 0.66 2 1 C1.49172849 5.37113496 0.54826592 8.38995662 -2 12 C-2.33 12 -2.66 12 -3 12 C-2.14285714 3.42857143 -2.14285714 3.42857143 0 0 Z " fill="#E5ECDF" transform="translate(80,178)"/>
<path d="M0 0 C0 5.61 0 11.22 0 17 C-0.33 17 -0.66 17 -1 17 C-1.33 14.03 -1.66 11.06 -2 8 C-2.33 8 -2.66 8 -3 8 C-3 5.69 -3 3.38 -3 1 C-1 0 -1 0 0 0 Z " fill="#1E1914" transform="translate(190,155)"/>
<path d="M0 0 C0.66 0.33 1.32 0.66 2 1 C-2.33333333 5.33333333 -6.66666667 9.66666667 -11 14 C-10.52590352 9.68269587 -7.96603297 7.66352539 -4.9375 4.75 C-4.01839844 3.85796875 -3.09929687 2.9659375 -2.15234375 2.046875 C-1.44207031 1.37140625 -0.73179687 0.6959375 0 0 Z " fill="#8F683E" transform="translate(199,182)"/>
<path d="M0 0 C1.625 1.4375 1.625 1.4375 3 4 C2.66417503 7.09705247 1.88564868 10.01810374 1 13 C-0.9078584 9.8250906 -1.1609041 7.89414789 -0.625 4.25 C-0.51414063 3.45078125 -0.40328125 2.6515625 -0.2890625 1.828125 C-0.19367188 1.22484375 -0.09828125 0.6215625 0 0 Z " fill="#BDBEBD" transform="translate(178,258)"/>
<path d="M0 0 C0.680625 0.309375 1.36125 0.61875 2.0625 0.9375 C-1.17271742 3.42612878 -4.53010295 5.69171558 -7.9375 7.9375 C-8.5975 7.6075 -9.2575 7.2775 -9.9375 6.9375 C-3.86310175 -0.08219365 -3.86310175 -0.08219365 0 0 Z " fill="#343434" transform="translate(71.9375,171.0625)"/>
<path d="M0 0 C4.95 0 9.9 0 15 0 C15 0.33 15 0.66 15 1 C10.71 1.66 6.42 2.32 2 3 C2 2.34 2 1.68 2 1 C1.34 0.67 0.68 0.34 0 0 Z " fill="#F5F7F3" transform="translate(289,155)"/>
<path d="M0 0 C0.66 0.66 1.32 1.32 2 2 C1.828125 4.09375 1.828125 4.09375 1.25 6.5 C0.97929687 7.69109375 0.97929687 7.69109375 0.703125 8.90625 C0 11 0 11 -2 13 C-1.85769192 11.58297487 -1.71099254 10.1663904 -1.5625 8.75 C-1.48128906 7.96109375 -1.40007812 7.1721875 -1.31640625 6.359375 C-1.02365007 4.17635361 -0.57935581 2.1226818 0 0 Z " fill="#A7BD92" transform="translate(130,232)"/>
<path d="M0 0 C1.67110042 2.96178773 2.32682752 5.37071192 2.625 8.75 C2.69976562 9.54921875 2.77453125 10.3484375 2.8515625 11.171875 C2.90054688 11.77515625 2.94953125 12.3784375 3 13 C0.72299943 10.72299943 0.47898308 9.58686902 -0.1875 6.5 C-0.36667969 5.7059375 -0.54585937 4.911875 -0.73046875 4.09375 C-1 2 -1 2 0 0 Z " fill="#AABF95" transform="translate(229,232)"/>
<path d="M0 0 C2.08466413 3.38757921 2.42905061 6.05273438 2 10 C1.01 10.66 0.02 11.32 -1 12 C-1.08159574 7.83861737 -0.98248524 4.0527516 0 0 Z " fill="#D7D8D7" transform="translate(189,123)"/>
<path d="M0 0 C4.59306496 1.4859916 7.43569245 3.85014682 11 7 C10.34 7.66 9.68 8.32 9 9 C7.49704815 7.69088122 5.99770689 6.37761608 4.5 5.0625 C3.6646875 4.33160156 2.829375 3.60070313 1.96875 2.84765625 C1.3190625 2.23792969 0.669375 1.62820312 0 1 C0 0.67 0 0.34 0 0 Z " fill="#A4BB8E" transform="translate(101,42)"/>
<path d="M0 0 C0.66 0 1.32 0 2 0 C1.46930939 3.82097239 0.50298434 6.06171403 -2 9 C-2 8.34 -2 7.68 -2 7 C-2.66 6.67 -3.32 6.34 -4 6 C-3.34 6 -2.68 6 -2 6 C-1.34 4.02 -0.68 2.04 0 0 Z " fill="#E5E5E4" transform="translate(171,279)"/>
<path d="M0 0 C1.5625 1.6875 1.5625 1.6875 3 4 C2.6875 6.75 2.6875 6.75 2 9 C0.4375 7.3125 0.4375 7.3125 -1 5 C-0.6875 2.25 -0.6875 2.25 0 0 Z " fill="#E0E8D8" transform="translate(279,178)"/>
<path d="M0 0 C0.66 0.33 1.32 0.66 2 1 C-0.64 3.64 -3.28 6.28 -6 9 C-6.66 8.34 -7.32 7.68 -8 7 C-5.36 4.69 -2.72 2.38 0 0 Z " fill="#C6D5B8" transform="translate(230,40)"/>
<path d="M0 0 C0.66 1.32 1.32 2.64 2 4 C0.68 5.32 -0.64 6.64 -2 8 C-2.66 7.34 -3.32 6.68 -4 6 C-2.68 4.02 -1.36 2.04 0 0 Z " fill="#D3D3D2" transform="translate(178,192)"/>
<path d="M0 0 C4.43458973 1.3937282 6.87378374 3.60582235 10 7 C6.433255 7 5.89456323 6.36308045 3.3125 4.0625 C2.68988281 3.51722656 2.06726563 2.97195312 1.42578125 2.41015625 C0.95527344 1.94480469 0.48476562 1.47945312 0 1 C0 0.67 0 0.34 0 0 Z " fill="#9FB786" transform="translate(83,142)"/>
<path d="M0 0 C0.33 0 0.66 0 1 0 C1 1.98 1 3.96 1 6 C0.34 6 -0.32 6 -1 6 C-1.33 6.66 -1.66 7.32 -2 8 C-5 4.25 -5 4.25 -5 2 C-3.02 2.99 -3.02 2.99 -1 4 C-0.67 2.68 -0.34 1.36 0 0 Z " fill="#D4DFCA" transform="translate(97,88)"/>
<path d="M0 0 C3.42353587 1.21480305 5.01180815 3.01771223 7 6 C3.54074837 4.7508258 0.85306797 3.32472205 -2 1 C-1.34 0.67 -0.68 0.34 0 0 Z " fill="#2B2B2B" transform="translate(290,172)"/>
<path d="M0 0 C0.804375 0.4640625 0.804375 0.4640625 1.625 0.9375 C4.3984957 2.17827439 7.00042837 2.5909675 10 3 C8.5 4.1875 8.5 4.1875 6 5 C3.21175762 4.27101296 0.62334908 3.1843275 -2 2 C-1.34 1.34 -0.68 0.68 0 0 Z " fill="#403A34" transform="translate(151,121)"/>
<path d="M0 0 C0.33 0 0.66 0 1 0 C0.25 6.75 0.25 6.75 -2 9 C-3 6 -3 6 -1.5625 2.8125 C-1.046875 1.884375 -0.53125 0.95625 0 0 Z " fill="#E4E4E3" transform="translate(190,289)"/>
</svg>
